<svg width="10" height="10" viewBox="0 0 10 10" fill="none" xmlns="http://www.w3.org/2000/svg">
<g clip-path="url(#clip0_3_72)">
<path d="M5.00004 10C7.76144 10 10 7.76143 10 4.99999C10 2.23858 7.76146 1.52588e-05 5.00004 1.52588e-05C2.23862 1.52588e-05 4.57764e-05 2.23858 4.57764e-05 5.00002C4.57764e-05 7.76146 2.23862 10 5.00004 10Z" fill="#FF6465"/>
<path opacity="0.1" d="M1.3452 5.00002C1.3452 2.46671 3.2293 0.373745 5.67261 0.0451909C5.45259 0.0156012 5.22816 1.52588e-05 5.00004 1.52588e-05C2.23862 1.52588e-05 4.57764e-05 2.23858 4.57764e-05 5.00002C4.57764e-05 7.76146 2.23862 10 5.00002 10C5.22814 10 5.45257 9.98443 5.67259 9.95484C3.2293 9.62627 1.3452 7.5333 1.3452 5.00002Z" fill="black"/>
<path d="M6.1209 5.00001L7.43727 3.68365C7.53295 3.58797 7.53295 3.43283 7.43727 3.33716L6.66285 2.56275C6.56717 2.46707 6.41203 2.46707 6.31637 2.56275L5.00001 3.87912L3.68364 2.56275C3.58796 2.46707 3.43282 2.46707 3.33716 2.56275L2.56274 3.33716C2.46706 3.43285 2.46706 3.58798 2.56274 3.68365L3.87911 5.00001L2.56274 6.31638C2.46706 6.41206 2.46706 6.5672 2.56274 6.66288L3.33716 7.43729C3.43284 7.53298 3.58798 7.53298 3.68364 7.43729L5.00001 6.12093L6.31639 7.43729C6.41207 7.53298 6.56721 7.53298 6.66287 7.43729L7.43729 6.66288C7.53297 6.5672 7.53297 6.41206 7.43729 6.31638L6.1209 5.00001Z" fill="white"/>
</g>
<defs>
<clipPath id="clip0_3_72">
<rect width="10" height="10" fill="white"/>
</clipPath>
</defs>
</svg>
