<svg width="50" height="50" viewBox="0 0 50 50" fill="none" xmlns="http://www.w3.org/2000/svg">
<path d="M7 42C18 42.1 27.5 41.9 38.6 41.9C40.35 40.8 41.5 37.85 41.5 35.65V15.2C41.5 14.5 40.95 13.95 40.25 13.95H26.75C26.05 13.95 25.5 13.4 25.5 12.7V11.55C25.5 9.85 24.1 8.45 22.35 8.45H8.65C6.95 8.45 5.5 9.9 5.5 11.65V14.9L5.55 39C5.55 41.5 6.15 42 7 42Z" fill="#FEF6AA"/>
<path d="M7.75 16C7.6 16 7.5 15.9 7.5 15.75V13.25C7.5 11.7 8.7 10.5 10.15 10.5H19.25C19.4 10.5 19.5 10.6 19.5 10.75C19.5 10.9 19.4 11 19.25 11H10.15C9 11 8 12 8 13.25V15.75C8 15.85 7.9 16 7.75 16ZM23.25 13.5C23.1 13.5 23 13.4 23 13.25C23 12 22 11 20.85 11C20.7 11 20.6 10.9 20.6 10.75C20.6 10.6 20.7 10.5 20.85 10.5C22.3 10.5 23.5 11.75 23.5 13.25C23.5 13.4 23.4 13.5 23.25 13.5Z" fill="#1F212B"/>
<path d="M6.90002 42H42.5C43.35 42 44.05 41.3 44.05 40.45V18.5H8.00002V37.4C8.00002 39.95 8.15002 42 6.90002 42Z" fill="#F9E65C"/>
<path d="M12.75 21.25H24.75V26.25H12.75V21.25Z" fill="#8F9EB6"/>
<path d="M24.75 26.5H12.75C12.6 26.5 12.5 26.4 12.5 26.25V21.25C12.5 21.1 12.6 21 12.75 21H24.75C24.9 21 25 21.1 25 21.25V26.25C25 26.4 24.9 26.5 24.75 26.5ZM13 26H24.5V21.5H13V26Z" fill="#1F212B"/>
<path d="M44 18H42V15.2C42 14.25 41.2 13.45 40.25 13.45H26.75C26.35 13.45 26 13.1 26 12.7V11.55C26 9.55 24.35 7.95 22.35 7.95H8.65C6.65 7.95 5 9.6 5 11.65L5.05 39C5.05 40.75 5.25 42.35 6.8 42.5H6.85H7C7.35 42.5 7.65 42.5 8 42.5H42.45C43.6 42.5 44.5 41.6 44.5 40.45V18.5C44.5 18.2 44.3 18 44 18ZM7.5 18.5V37.4V38.05C7.5 39.5 7.5 41.05 7.1 41.45C7.05 41.45 7 41.5 6.9 41.5C6.55 41.5 6.05 41.25 6.05 39L6 14.9V11.65C6 10.15 7.2 8.95 8.65 8.95H22.4C23.85 8.95 25.05 10.1 25.05 11.55V12.7C25.05 13.65 25.85 14.45 26.8 14.45H40.35C40.75 14.45 41.1 14.8 41.1 15.2V18H8C7.7 18 7.5 18.2 7.5 18.5ZM43.5 40.45C43.5 41 43.05 41.5 42.45 41.5H8.2C8.5 40.7 8.5 39.5 8.5 38V19H43.5V40.45Z" fill="#1F212B"/>
</svg>
