<svg width="50" height="50" viewBox="0 0 50 50" fill="none" xmlns="http://www.w3.org/2000/svg">
<path d="M39.4605 14.7775C35.5235 10.84 33.274 8.591 29.337 4.6535H19.9295H15.377H13.9605H13.3265C10.925 4.6535 8.96051 6.6185 8.96051 9.0195V39.787C8.96051 42.1885 10.9255 44.153 13.3265 44.153H35.094C37.4955 44.153 39.46 42.188 39.46 39.787L39.4605 14.7775Z" fill="#FEFDEF"/>
<path d="M35.0945 44.6535H13.327C10.644 44.6535 8.461 42.4705 8.461 39.7875V9.02001C8.461 6.33651 10.644 4.15401 13.327 4.15401H29.3375C29.4705 4.15401 29.5975 4.20651 29.691 4.30051L39.8145 14.4245C39.9085 14.5185 39.961 14.6455 39.961 14.778V39.788C39.9605 42.4705 37.7775 44.6535 35.0945 44.6535ZM13.327 5.15351C11.195 5.15351 9.461 6.88801 9.461 9.01951V39.787C9.461 41.919 11.1955 43.653 13.327 43.653H35.0945C37.2265 43.653 38.9605 41.9185 38.9605 39.787V14.9845L29.13 5.15351H13.327Z" fill="#1F212B"/>
<path d="M29.2105 4.9035V10.3965C29.2105 12.8755 31.2385 14.9035 33.7175 14.9035H39.7105" fill="#FEF6AA"/>
<path d="M39.7105 15.1535H33.718C31.095 15.1535 28.9605 13.0195 28.9605 10.396V4.9035C28.9605 4.7655 29.0725 4.6535 29.2105 4.6535C29.3485 4.6535 29.4605 4.7655 29.4605 4.9035V10.396C29.4605 12.7435 31.37 14.6535 33.718 14.6535H39.7105C39.8485 14.6535 39.9605 14.7655 39.9605 14.9035C39.9605 15.0415 39.849 15.1535 39.7105 15.1535ZM36.7105 24.1535C36.5725 24.1535 36.4605 24.0415 36.4605 23.9035V22.4035C36.4605 22.2655 36.5725 22.1535 36.7105 22.1535C36.8485 22.1535 36.9605 22.2655 36.9605 22.4035V23.9035C36.9605 24.0415 36.849 24.1535 36.7105 24.1535ZM36.7105 28.1535C36.5725 28.1535 36.4605 28.0415 36.4605 27.9035V24.9035C36.4605 24.7655 36.5725 24.6535 36.7105 24.6535C36.8485 24.6535 36.9605 24.7655 36.9605 24.9035V27.9035C36.9605 28.0415 36.849 28.1535 36.7105 28.1535ZM33.1315 41.6535H15.2895C13.178 41.6535 11.4605 39.9285 11.4605 37.809V11.4775C11.4605 10.2485 12.057 9.0825 13.057 8.3585C13.712 7.884 14.484 7.633 15.2895 7.633C15.4275 7.633 15.5395 7.745 15.5395 7.883C15.5395 8.021 15.4275 8.133 15.2895 8.133C14.5905 8.133 13.9195 8.351 13.35 8.7635C12.48 9.3945 11.9605 10.409 11.9605 11.478V37.8095C11.9605 39.6535 13.454 41.154 15.2895 41.154H33.1315C34.967 41.154 36.4605 39.6535 36.4605 37.8095V28.9035C36.4605 28.7655 36.5725 28.6535 36.7105 28.6535C36.8485 28.6535 36.9605 28.7655 36.9605 28.9035V37.809C36.9605 39.9285 35.243 41.6535 33.1315 41.6535Z" fill="#1F212B"/>
<path d="M24.7105 26.1535H14.2105C14.0725 26.1535 13.9605 26.0415 13.9605 25.9035C13.9605 25.7655 14.0725 25.6535 14.2105 25.6535H24.7105C24.8485 25.6535 24.9605 25.7655 24.9605 25.9035C24.9605 26.0415 24.849 26.1535 24.7105 26.1535ZM20.7105 29.6535H14.2105C14.0725 29.6535 13.9605 29.5415 13.9605 29.4035C13.9605 29.2655 14.0725 29.1535 14.2105 29.1535H20.7105C20.8485 29.1535 20.9605 29.2655 20.9605 29.4035C20.9605 29.5415 20.849 29.6535 20.7105 29.6535ZM34.2105 29.6535H22.2105C22.0725 29.6535 21.9605 29.5415 21.9605 29.4035C21.9605 29.2655 22.0725 29.1535 22.2105 29.1535H34.2105C34.3485 29.1535 34.4605 29.2655 34.4605 29.4035C34.4605 29.5415 34.349 29.6535 34.2105 29.6535ZM29.7105 33.1535H24.2105C24.0725 33.1535 23.9605 33.0415 23.9605 32.9035C23.9605 32.7655 24.0725 32.6535 24.2105 32.6535H29.7105C29.8485 32.6535 29.9605 32.7655 29.9605 32.9035C29.9605 33.0415 29.849 33.1535 29.7105 33.1535ZM34.7105 33.1535H30.7105C30.5725 33.1535 30.4605 33.0415 30.4605 32.9035C30.4605 32.7655 30.5725 32.6535 30.7105 32.6535H34.7105C34.8485 32.6535 34.9605 32.7655 34.9605 32.9035C34.9605 33.0415 34.849 33.1535 34.7105 33.1535ZM22.7105 33.1535H14.2105C14.0725 33.1535 13.9605 33.0415 13.9605 32.9035C13.9605 32.7655 14.0725 32.6535 14.2105 32.6535H22.7105C22.8485 32.6535 22.9605 32.7655 22.9605 32.9035C22.9605 33.0415 22.849 33.1535 22.7105 33.1535ZM34.2105 36.6535H27.2105C27.0725 36.6535 26.9605 36.5415 26.9605 36.4035C26.9605 36.2655 27.0725 36.1535 27.2105 36.1535H34.2105C34.3485 36.1535 34.4605 36.2655 34.4605 36.4035C34.4605 36.5415 34.349 36.6535 34.2105 36.6535ZM26.2105 36.6535H14.2105C14.0725 36.6535 13.9605 36.5415 13.9605 36.4035C13.9605 36.2655 14.0725 36.1535 14.2105 36.1535H26.2105C26.3485 36.1535 26.4605 36.2655 26.4605 36.4035C26.4605 36.5415 26.349 36.6535 26.2105 36.6535ZM24.7105 22.6535H14.2105C14.0725 22.6535 13.9605 22.5415 13.9605 22.4035C13.9605 22.2655 14.0725 22.1535 14.2105 22.1535H24.7105C24.8485 22.1535 24.9605 22.2655 24.9605 22.4035C24.9605 22.5415 24.849 22.6535 24.7105 22.6535Z" fill="#1F212B"/>
<path d="M26.2105 25.9035V18.9035H34.2105V26.9035H28.2105" fill="#FEF6AA"/>
<path d="M34.2105 27.1535H28.2105C28.0725 27.1535 27.9605 27.0415 27.9605 26.9035C27.9605 26.7655 28.0725 26.6535 28.2105 26.6535H33.9605V19.1535H26.4605V25.9035C26.4605 26.0415 26.3485 26.1535 26.2105 26.1535C26.0725 26.1535 25.9605 26.0415 25.9605 25.9035V18.9035C25.9605 18.7655 26.0725 18.6535 26.2105 18.6535H34.2105C34.3485 18.6535 34.4605 18.7655 34.4605 18.9035V26.9035C34.4605 27.0415 34.349 27.1535 34.2105 27.1535ZM24.7105 19.1535H14.2105C14.0725 19.1535 13.9605 19.0415 13.9605 18.9035C13.9605 18.7655 14.0725 18.6535 14.2105 18.6535H24.7105C24.8485 18.6535 24.9605 18.7655 24.9605 18.9035C24.9605 19.0415 24.849 19.1535 24.7105 19.1535Z" fill="#1F212B"/>
</svg>
